# xmcd
#
# Track frame offsets:
#	150
#	15117
#	28625
#	40833
#	51559
#	66377
#	80874
#	95015
#	104440
#	115985
#	127667
#	141080
#	154492
#	168456
#	179457
#	195816
#	209975
#	223166
#	236978
#	249115
#
# Disc length: 3541 seconds
#
# Revision: 0
# Processed by: cddbd v1.5.2PL0 Copyright (c) Steve Scherf et al.
# Submitted via: dBpowerAMP V4.0
#
DISCID=270dd314
DTITLE=Varios - Los 100 mejores Boleros de la Historia
DYEAR=1900
DGENRE=
TTITLE0=101 El reloj (Lucho Gatica)
TTITLE1=102 Bésame mucho (Los Panchos)
TTITLE2=103 Nostalgia habanera (Celia Cruz)
TTITLE3=104 Los aretes de la luna (Vicentico Valdés)
TTITLE4=105 Si mi corazón pudiera (Tito Rodriguez)
TTITLE5=106 Inolvidablemente (Moncho)
TTITLE6=107 Por qué negar? (Pedro Vargas)
TTITLE7=108 Nosotros (Soledad Bravo)
TTITLE8=109 Cuando vuelva a tu lado (Los Panchos and Mari Trini)
TTITLE9=110 Plazos traicioneros (Johnny Albino)
TTITLE10=111 Toda una vida (Antonio Machin)
TTITLE11=112 Miénteme (Olga Guillot)
TTITLE12=113 Te lo juro yo (Bobby Capó)
TTITLE13=114 Voy a apagar la luz (Moncho)
TTITLE14=115 Se te olvida (Paula Monsalve)
TTITLE15=116 Esta tarde ví llover (Boleros Bengalies)
TTITLE16=117 Las tres cosas (Pedro Infante)
TTITLE17=118 Alma con alma (Tito Gomez)
TTITLE18=119 Recuerdo de ti (Los Tres Reyes)
TTITLE19=120 El día que me quieras (Trío Siboney)
EXTD=
EXTT0=
EXTT1=
EXTT2=
EXTT3=
EXTT4=
EXTT5=
EXTT6=
EXTT7=
EXTT8=
EXTT9=
EXTT10=
EXTT11=
EXTT12=
EXTT13=
EXTT14=
EXTT15=
EXTT16=
EXTT17=
EXTT18=
EXTT19=
PLAYORDER=
